<?xml version="1.0" encoding="UTF-8"?>
<svg xmlns="http://www.w3.org/2000/svg" xmlns:xlink="http://www.w3.org/1999/xlink" width="699" height="558" stroke-linecap="round"><defs><clipPath id="clip10_0"><path d="M0,0L305.79999999999995,0C306.90383004898797,0,307.79999999999995,0.896169951012,307.79999999999995,2L307.79999999999995,29.5C307.79999999999995,30.603830048988,306.90383004898797,31.5,305.79999999999995,31.5L0,31.5C0,31.5,0,31.5,0,31.5L0,0C0,0,0,0,0,0Z" transform="matrix(1 0 0 1 153 158.75)"/></clipPath><clipPath id="clip11_1"><path d="M0,0L241,0C242.103830048988,0,243,0.896169951012,243,2L243,29.5C243,30.603830048988,242.103830048988,31.5,241,31.5L0,31.5C0,31.5,0,31.5,0,31.5L0,0C0,0,0,0,0,0Z" transform="matrix(1 0 0 1 153 193.75)"/></clipPath><clipPath id="clip12_2"><path d="M0,0L500.20000000000005,0C501.30383004898806,0,502.20000000000005,0.896169951012,502.20000000000005,2L502.20000000000005,30.142857142857146C502.20000000000005,31.246687191845147,501.30383004898806,32.142857142857146,500.20000000000005,32.142857142857146L0,32.142857142857146C0,32.142857142857146,0,32.142857142857146,0,32.142857142857146L0,0C0,0,0,0,0,0Z" transform="matrix(1 0 0 1 153 271.786)"/></clipPath><clipPath id="clip13_3"><path d="M0,0L489.40000000000003,0C490.50383004898805,0,491.40000000000003,0.896169951012,491.40000000000003,2L491.40000000000003,30.142857142857146C491.40000000000003,31.246687191845147,490.50383004898805,32.142857142857146,489.40000000000003,32.142857142857146L0,32.142857142857146C0,32.142857142857146,0,32.142857142857146,0,32.142857142857146L0,0C0,0,0,0,0,0Z" transform="matrix(1 0 0 1 153 307.5)"/></clipPath><clipPath id="clip14_4"><path d="M0,0L451.59999999999997,0C452.703830048988,0,453.59999999999997,0.896169951012,453.59999999999997,2L453.59999999999997,30.142857142857146C453.59999999999997,31.246687191845147,452.703830048988,32.142857142857146,451.59999999999997,32.142857142857146L0,32.142857142857146C0,32.142857142857146,0,32.142857142857146,0,32.142857142857146L0,0C0,0,0,0,0,0Z" transform="matrix(1 0 0 1 153 343.214)"/></clipPath><clipPath id="clip15_5"><path d="M0,0L440.79999999999995,0C441.90383004898797,0,442.79999999999995,0.896169951012,442.79999999999995,2L442.79999999999995,30.142857142857146C442.79999999999995,31.246687191845147,441.90383004898797,32.142857142857146,440.79999999999995,32.142857142857146L0,32.142857142857146C0,32.142857142857146,0,32.142857142857146,0,32.142857142857146L0,0C0,0,0,0,0,0Z" transform="matrix(1 0 0 1 153 378.929)"/></clipPath><clipPath id="clip16_6"><path d="M0,0L440.79999999999995,0C441.90383004898797,0,442.79999999999995,0.896169951012,442.79999999999995,2L442.79999999999995,30.142857142857146C442.79999999999995,31.246687191845147,441.90383004898797,32.142857142857146,440.79999999999995,32.142857142857146L0,32.142857142857146C0,32.142857142857146,0,32.142857142857146,0,32.142857142857146L0,0C0,0,0,0,0,0Z" transform="matrix(1 0 0 1 153 414.643)"/></clipPath><clipPath id="clip17_7"><path d="M0,0L424.6,0C425.70383004898804,0,426.6,0.896169951012,426.6,2L426.6,30.142857142857146C426.6,31.246687191845147,425.70383004898804,32.142857142857146,424.6,32.142857142857146L0,32.142857142857146C0,32.142857142857146,0,32.142857142857146,0,32.142857142857146L0,0C0,0,0,0,0,0Z" transform="matrix(1 0 0 1 153 450.357)"/></clipPath><clipPath id="clip18_8"><path d="M0,0L403,0C404.103830048988,0,405,0.896169951012,405,2L405,30.142857142857146C405,31.246687191845147,404.103830048988,32.142857142857146,403,32.142857142857146L0,32.142857142857146C0,32.142857142857146,0,32.142857142857146,0,32.142857142857146L0,0C0,0,0,0,0,0Z" transform="matrix(1 0 0 1 153 486.071)"/></clipPath></defs><rect fill="transparent" width="699" height="558"/><g/><g/><g><path d="M154.19 85.344 C356.818 84.939, 560.651 85.668, 693.018 86.753 C692.268 94.917, 694.446 97.777, 692.633 112.601 C518.109 112.374, 344.968 110.319, 152.48 109.07 C155.668 101.994, 156.515 101.68, 154.506 84.563" stroke="none" stroke-width="0" fill="rgb(249, 249, 249)"/><path d="M152.594 85.748 C362.868 86.252, 572.571 86.047, 692.788 85.858 M692.264 84.801 C692.416 93.458, 692.577 100.956, 693.971 111.285 M693.072 109.484 C480.224 111.561, 267.391 112.15, 153.266 109.951 M153 108.966 C152.913 103.614, 152.852 100.52, 153.411 86.768" stroke="rgb(229, 229, 229)" stroke-width="2" fill="none"/></g><g class="text-container" transform="matrix(1 0 0 1 159 101)"><text aria-label="label: heute noch menschlich" role="graphics-symbol" aria-roledescription="text mark" text-anchor="start" font-family="IBM Plex Sans, Arial, Helvetica, sans-serif" font-size="11px" font-style="italic" fill="rgb(102, 102, 102)" style="font-style: italic;font-weight: 400;font-size: 11px;font-family: Comic Sans MS, cursive;" stroke="none" stroke-width="1px" dominant-baseline="auto">heute noch menschlich</text></g><g/><g class="text-container" transform="matrix(1 0 0 1 153 73)"><text text-anchor="start" font-family="Fraunces, Arial, Helvetica, sans-serif" font-size="12px" font-weight="bold" fill="rgb(65, 65, 65)" opacity="1" style="font-style: normal;font-weight: 700;font-size: 12px;font-family: Comic Sans MS, cursive;" stroke="none" stroke-width="1px" dominant-baseline="auto">Strategie / Briefing / Spezifikation</text></g><g/><g/><g/><g/><g class="text-container" transform="matrix(1 0 0 1 151.5 177.5)"><text text-anchor="end" font-family="IBM Plex Sans, Arial, Helvetica, sans-serif" font-size="11px" fill="rgb(65, 65, 65)" opacity="1" style="font-style: normal;font-weight: 400;font-size: 11px;font-family: Comic Sans MS, cursive;" stroke="none" stroke-width="1px" dominant-baseline="auto">Programmatic Deal Execution</text></g><g class="text-container" transform="matrix(1 0 0 1 151.5 212.5)"><text text-anchor="end" font-family="IBM Plex Sans, Arial, Helvetica, sans-serif" font-size="11px" fill="rgb(65, 65, 65)" opacity="1" style="font-style: normal;font-weight: 400;font-size: 11px;font-family: Comic Sans MS, cursive;" stroke="none" stroke-width="1px" dominant-baseline="auto">Direct I/O Negotiations</text></g><g/><g/><g clip-path="url(#clip10_0)"/><g clip-path="url(#clip10_0)"><path d="M155.291 157.196 C229.243 157.425, 302.755 156.82, 458.909 157.427 C460.45 163.864, 457.556 171.437, 460.514 187.066 C344.212 194.873, 233.952 191.62, 153.738 189.062 C149.647 178.185, 154.023 163.718, 150.268 157.814" stroke="none" stroke-width="0" fill="rgb(208, 208, 208)"/><path d="M154.007 158.576 C274.793 156.593, 396.709 157.333, 460.296 157.934 M152.858 158.686 C252.754 160.191, 353.596 159.719, 460.549 158.765 M459.209 160.032 C461.38 165.651, 459.718 176.493, 462.314 189.083 M460.988 159.124 C461.075 171.461, 460.32 183.111, 460.727 189.765 M461.389 189.808 C357.534 190.415, 252.476 190.535, 153.492 190.158 M460.756 189.916 C378.038 190.198, 295.938 189.727, 152.94 190.636 M152.264 190.534 C152.181 178.96, 154.359 166.299, 153.461 157.657 M152.241 190.865 C152.87 184.26, 152.988 176.944, 153.704 158.446" stroke="rgb(65, 65, 65)" stroke-width="2" fill="none"/></g><g clip-path="url(#clip10_0)"/><g/><g/><g clip-path="url(#clip11_1)"/><g clip-path="url(#clip11_1)"><path d="M152.362 195.48 C237.41 198.821, 319.349 198.06, 397.236 191.326 C395.439 203.909, 399.107 213.137, 398.712 225.496 C341.059 224.41, 283.124 222.234, 154.32 227.481 C153.569 217.802, 154.46 201.835, 151.631 193.765" stroke="none" stroke-width="0" fill="rgb(208, 208, 208)"/><path d="M153.384 193.583 C244.914 194.636, 336.001 195.45, 395.644 194.188 M397.214 192.575 C396.081 206.351, 394.574 219.147, 395.307 226.677 M395.131 226.121 C340.662 225.323, 287.176 224.115, 152.595 225.28 M154.039 225.296 C153.847 213.234, 153.039 202.926, 151.64 193.771" stroke="rgb(65, 65, 65)" stroke-width="2" fill="none"/></g><g clip-path="url(#clip11_1)"/><g/><g class="text-container" transform="matrix(1 0 0 1 464.8 178.5)"><text aria-label="share: 57; task: Programmatic Deal Execution; label: 57" role="graphics-symbol" aria-roledescription="text mark" text-anchor="start" font-family="IBM Plex Sans, Arial, Helvetica, sans-serif" font-size="12px" font-weight="bold" fill="rgb(65, 65, 65)" style="font-style: normal;font-weight: 700;font-size: 12px;font-family: Comic Sans MS, cursive;" stroke="none" stroke-width="1px" dominant-baseline="auto">57</text></g><g class="text-container" transform="matrix(1 0 0 1 400 213.5)"><text aria-label="share: 45; task: Direct I/O Negotiations; label: 45" role="graphics-symbol" aria-roledescription="text mark" text-anchor="start" font-family="IBM Plex Sans, Arial, Helvetica, sans-serif" font-size="12px" font-weight="bold" fill="rgb(65, 65, 65)" style="font-style: normal;font-weight: 700;font-size: 12px;font-family: Comic Sans MS, cursive;" stroke="none" stroke-width="1px" dominant-baseline="auto">45</text></g><g/><g class="text-container" transform="matrix(1 0 0 1 5.228 148)"><text text-anchor="start" font-family="Fraunces, Arial, Helvetica, sans-serif" font-size="12px" font-weight="bold" fill="rgb(65, 65, 65)" opacity="1" style="font-style: normal;font-weight: 700;font-size: 12px;font-family: Comic Sans MS, cursive;" stroke="none" stroke-width="1px" dominant-baseline="auto">Verhandlung</text></g><g/><g/><g/><g/><g><path d="M154.431 521.796 C155.527 438.143, 154.956 357.083, 153.583 271.442" stroke="rgb(229, 229, 229)" stroke-width="1" fill="none"/></g><g><path d="M262.788 519.881 C262.38 463.063, 260.354 405.393, 262.212 270.945 M261.953 521.072 C262.249 464.783, 262.365 409.942, 260.895 270.613" stroke="rgb(229, 229, 229)" stroke-width="1" fill="none"/></g><g><path d="M368.868 519.435 C370.131 433.769, 368.055 347.802, 369.818 270.284" stroke="rgb(229, 229, 229)" stroke-width="1" fill="none"/></g><g><path d="M477.89 519.513 C477.006 450.135, 476.27 379.77, 478.14 271.382" stroke="rgb(229, 229, 229)" stroke-width="1" fill="none"/></g><g><path d="M586.77 521.069 C584.402 433.488, 584.295 344.954, 584.564 270.857 M585.408 520.186 C584.388 469.186, 584.773 417.925, 585.553 270.859" stroke="rgb(229, 229, 229)" stroke-width="1" fill="none"/></g><g><path d="M693.616 520.456 C694.027 462.824, 693.844 405.297, 694.197 271.137" stroke="rgb(229, 229, 229)" stroke-width="1" fill="none"/></g><g/><g/><g><path d="M153.372 520.296 C153.217 522.161, 153.873 523.791, 153.517 525.841" stroke="rgb(196, 69, 64)" stroke-width="1" fill="none"/></g><g><path d="M261.649 520.101 C261.283 522.044, 261.258 523.336, 261.12 525.81 M261.341 520.612 C261.397 522.135, 261.558 524.244, 261.362 525.368" stroke="rgb(196, 69, 64)" stroke-width="1" fill="none"/></g><g><path d="M369.312 520.779 C369.087 521.935, 369.696 524.076, 369.811 525.738" stroke="rgb(196, 69, 64)" stroke-width="1" fill="none"/></g><g><path d="M477.247 520.108 C477.102 522.127, 477.108 523.382, 477.323 525.789 M477.541 520.447 C477.539 522.036, 477.346 523.068, 477.668 525.643" stroke="rgb(196, 69, 64)" stroke-width="1" fill="none"/></g><g><path d="M585.216 520.314 C585.539 522.142, 585.881 523.839, 585.832 525.622" stroke="rgb(196, 69, 64)" stroke-width="1" fill="none"/></g><g><path d="M693.534 520.447 C693.227 521.254, 693.401 523.094, 693.582 525.431 M693.63 520.429 C693.685 522.113, 693.438 523.677, 693.522 525.428" stroke="rgb(196, 69, 64)" stroke-width="1" fill="none"/></g><g class="text-container" transform="matrix(1 0 0 1 153.5 536.5)"><text text-anchor="start" font-family="IBM Plex Sans, Arial, Helvetica, sans-serif" font-size="11px" fill="rgb(65, 65, 65)" opacity="1" style="font-style: normal;font-weight: 400;font-size: 11px;font-family: Comic Sans MS, cursive;" stroke="none" stroke-width="1px" dominant-baseline="auto">0</text></g><g class="text-container" transform="matrix(1 0 0 1 261.5 536.5)"><text text-anchor="middle" font-family="IBM Plex Sans, Arial, Helvetica, sans-serif" font-size="11px" fill="rgb(65, 65, 65)" opacity="1" style="font-style: normal;font-weight: 400;font-size: 11px;font-family: Comic Sans MS, cursive;" stroke="none" stroke-width="1px" dominant-baseline="auto">20</text></g><g class="text-container" transform="matrix(1 0 0 1 369.5 536.5)"><text text-anchor="middle" font-family="IBM Plex Sans, Arial, Helvetica, sans-serif" font-size="11px" fill="rgb(65, 65, 65)" opacity="1" style="font-style: normal;font-weight: 400;font-size: 11px;font-family: Comic Sans MS, cursive;" stroke="none" stroke-width="1px" dominant-baseline="auto">40</text></g><g class="text-container" transform="matrix(1 0 0 1 477.5 536.5)"><text text-anchor="middle" font-family="IBM Plex Sans, Arial, Helvetica, sans-serif" font-size="11px" fill="rgb(65, 65, 65)" opacity="1" style="font-style: normal;font-weight: 400;font-size: 11px;font-family: Comic Sans MS, cursive;" stroke="none" stroke-width="1px" dominant-baseline="auto">60</text></g><g class="text-container" transform="matrix(1 0 0 1 585.5 536.5)"><text text-anchor="middle" font-family="IBM Plex Sans, Arial, Helvetica, sans-serif" font-size="11px" fill="rgb(65, 65, 65)" opacity="1" style="font-style: normal;font-weight: 400;font-size: 11px;font-family: Comic Sans MS, cursive;" stroke="none" stroke-width="1px" dominant-baseline="auto">80</text></g><g class="text-container" transform="matrix(1 0 0 1 693.5 536.5)"><text text-anchor="end" font-family="IBM Plex Sans, Arial, Helvetica, sans-serif" font-size="11px" fill="rgb(65, 65, 65)" opacity="1" style="font-style: normal;font-weight: 400;font-size: 11px;font-family: Comic Sans MS, cursive;" stroke="none" stroke-width="1px" dominant-baseline="auto">100</text></g><g class="text-container" transform="matrix(1 0 0 1 423.5 551.5)"><text text-anchor="middle" font-family="IBM Plex Sans, Arial, Helvetica, sans-serif" font-size="11px" font-weight="bold" fill="rgb(65, 65, 65)" opacity="1" style="font-style: normal;font-weight: 700;font-size: 11px;font-family: Comic Sans MS, cursive;" stroke="none" stroke-width="1px" dominant-baseline="auto">Anteil der Buyer (%)</text></g><g/><g/><g class="text-container" transform="matrix(1 0 0 1 151.5 290.857)"><text text-anchor="end" font-family="IBM Plex Sans, Arial, Helvetica, sans-serif" font-size="11px" fill="rgb(65, 65, 65)" opacity="1" style="font-style: normal;font-weight: 400;font-size: 11px;font-family: Comic Sans MS, cursive;" stroke="none" stroke-width="1px" dominant-baseline="auto">Performance-Analyse</text></g><g class="text-container" transform="matrix(1 0 0 1 151.5 326.571)"><text text-anchor="end" font-family="IBM Plex Sans, Arial, Helvetica, sans-serif" font-size="11px" fill="rgb(65, 65, 65)" opacity="1" style="font-style: normal;font-weight: 400;font-size: 11px;font-family: Comic Sans MS, cursive;" stroke="none" stroke-width="1px" dominant-baseline="auto">Creative-Optimierung</text></g><g class="text-container" transform="matrix(1 0 0 1 151.5 362.286)"><text text-anchor="end" font-family="IBM Plex Sans, Arial, Helvetica, sans-serif" font-size="11px" fill="rgb(65, 65, 65)" opacity="1" style="font-style: normal;font-weight: 400;font-size: 11px;font-family: Comic Sans MS, cursive;" stroke="none" stroke-width="1px" dominant-baseline="auto">Media Planning &amp; Buying</text></g><g class="text-container" transform="matrix(1 0 0 1 151.5 398)"><text text-anchor="end" font-family="IBM Plex Sans, Arial, Helvetica, sans-serif" font-size="11px" fill="rgb(65, 65, 65)" opacity="1" style="font-style: normal;font-weight: 400;font-size: 11px;font-family: Comic Sans MS, cursive;" stroke="none" stroke-width="1px" dominant-baseline="auto">Media Pre-Planning</text></g><g class="text-container" transform="matrix(1 0 0 1 151.5 433.714)"><text text-anchor="end" font-family="IBM Plex Sans, Arial, Helvetica, sans-serif" font-size="11px" fill="rgb(65, 65, 65)" opacity="1" style="font-style: normal;font-weight: 400;font-size: 11px;font-family: Comic Sans MS, cursive;" stroke="none" stroke-width="1px" dominant-baseline="auto">Budget-Allokation &amp; Pacing</text></g><g class="text-container" transform="matrix(1 0 0 1 151.5 469.429)"><text text-anchor="end" font-family="IBM Plex Sans, Arial, Helvetica, sans-serif" font-size="11px" fill="rgb(65, 65, 65)" opacity="1" style="font-style: normal;font-weight: 400;font-size: 11px;font-family: Comic Sans MS, cursive;" stroke="none" stroke-width="1px" dominant-baseline="auto">Campaign Decisioning</text></g><g class="text-container" transform="matrix(1 0 0 1 151.5 505.143)"><text text-anchor="end" font-family="IBM Plex Sans, Arial, Helvetica, sans-serif" font-size="11px" fill="rgb(65, 65, 65)" opacity="1" style="font-style: normal;font-weight: 400;font-size: 11px;font-family: Comic Sans MS, cursive;" stroke="none" stroke-width="1px" dominant-baseline="auto">Inventory Discovery</text></g><g/><g/><g clip-path="url(#clip12_2)"/><g clip-path="url(#clip12_2)"><path d="M153.112 272.591 C287.303 270.83, 420.523 270.971, 655.907 272.856 C656.29 279.201, 654.25 287.215, 652.882 306.693 C456.797 303.303, 257.34 302.946, 153.522 303.549 C152.456 295.52, 154.592 287.901, 155.822 269.351" stroke="none" stroke-width="0" fill="rgb(240, 209, 207)"/><path d="M152.583 272.062 C317.16 271.788, 480.182 271.606, 655.628 272.263 M654.494 272.564 C655.818 283.845, 655.976 297.155, 656.052 302.659 M654.649 304.012 C460.171 302.717, 265.834 302.56, 152.567 304.254 M152.521 303.315 C153.385 293.113, 152.556 281.752, 152.955 270.388" stroke="rgb(196, 69, 64)" stroke-width="2" fill="none"/></g><g clip-path="url(#clip12_2)"/><g/><g/><g clip-path="url(#clip13_3)"/><g clip-path="url(#clip13_3)"><path d="M153.15 307.932 C278.154 307.699, 403.102 309.33, 644.085 308.776 C647.963 319.517, 647.825 331.554, 641.651 336.897 C491.761 341.032, 338.954 342.871, 153.375 339.727 C154.037 330.07, 150.993 323.39, 156.125 306.64" stroke="none" stroke-width="0" fill="rgb(240, 209, 207)"/><path d="M153.163 308.106 C273.326 307.964, 393.718 307.587, 644.967 307.239 M643.548 306.055 C645.71 315.333, 643.125 319.784, 645.807 338.154 M644.451 339.497 C467.285 340.051, 288.737 340.716, 153.343 339.604 M153.23 340.801 C154.209 326.611, 152.188 315.045, 153.873 308.989" stroke="rgb(196, 69, 64)" stroke-width="2" fill="none"/></g><g clip-path="url(#clip13_3)"/><g/><g/><g clip-path="url(#clip14_4)"/><g clip-path="url(#clip14_4)"><path d="M154.25 344.125 C274.096 343.929, 396.205 345.326, 605.292 342.103 C609.028 349.051, 608.355 357.679, 605.183 378.347 C494.068 373.23, 377.804 374.457, 151.546 376.621 C153.473 369.934, 150.026 355.856, 150.962 340.948" stroke="none" stroke-width="0" fill="rgb(240, 209, 207)"/><path d="M152.332 342.875 C316.871 344.116, 479.194 344.072, 607.189 343.134 M153.264 342.866 C252.713 342.25, 352.763 342.258, 606.611 343.137 M606.156 342.802 C608.014 353.791, 604.931 367.507, 605.109 376.24 M606.618 343.508 C606.299 352.66, 606.278 361.763, 606.871 375.068 M606.492 375.844 C433.581 373.819, 262.171 374.272, 152.889 374.838 M606.399 374.979 C435.502 376.581, 264.049 376.583, 153.194 375.472 M154.134 374.977 C151.74 361.784, 153.744 349.129, 151.468 341.908 M152.667 376 C153.513 365.335, 153.672 353.393, 153.746 343.805" stroke="rgb(196, 69, 64)" stroke-width="2" fill="none"/></g><g clip-path="url(#clip14_4)"/><g/><g/><g clip-path="url(#clip15_5)"/><g clip-path="url(#clip15_5)"><path d="M152.061 379.149 C302.736 379.908, 455.732 380.609, 595.437 377.799 C595.626 387.106, 597.107 397.953, 593.058 412.155 C425.394 409.871, 254.002 408.692, 152.553 411.667 C151.141 405.469, 154.803 397.463, 150.441 379.633" stroke="none" stroke-width="0" fill="rgb(240, 209, 207)"/><path d="M152.892 378.796 C270.689 378.103, 386.838 377.382, 595.147 379.711 M152.997 378.775 C252.08 380.875, 350.49 381.017, 595.781 379.143 M597.318 380.366 C595.895 389.398, 596.302 398.048, 596.817 411.737 M595.657 379.142 C595.819 389.067, 595.984 398.952, 595.385 410.472 M595.776 411.234 C447.558 410.553, 300.109 410.361, 153.61 410.368 M595.574 410.736 C452.26 411.322, 308.674 411.468, 152.642 410.767 M153.963 411.777 C153.503 401.572, 151.982 389.693, 151.578 379.103 M153.776 410.915 C152.792 403.836, 152.732 395.582, 153.77 378.372" stroke="rgb(196, 69, 64)" stroke-width="2" fill="none"/></g><g clip-path="url(#clip15_5)"/><g/><g/><g clip-path="url(#clip16_6)"/><g clip-path="url(#clip16_6)"><path d="M153.803 414.837 C290.458 413.285, 425.937 412.004, 596.975 414.377 C593.079 425.346, 595.326 432.042, 594.066 447.782 C505.722 446.659, 415.389 447.572, 153.097 445.308 C152.75 437.812, 155.347 420.32, 155.238 413.714" stroke="none" stroke-width="0" fill="rgb(240, 209, 207)"/><path d="M153.235 414.213 C276.714 415.566, 401.773 415.495, 595.8 415.321 M153.096 414.307 C252.468 412.935, 351.84 413.095, 595.676 414.639 M595.277 414.186 C595.655 421.66, 594.682 430.012, 594.343 446.117 M595.099 414.51 C595.621 424.755, 595.758 433.313, 595.21 446.503 M595.248 447.292 C424.757 445.55, 253.438 445.174, 153.389 446.292 M595.825 446.677 C474.355 447.68, 352.693 447.35, 153.179 446.678 M153.333 448.367 C153.838 437.113, 151.944 426.05, 153.529 416.167 M153.694 447.051 C152.724 439.829, 153.318 433.637, 152.402 414.857" stroke="rgb(196, 69, 64)" stroke-width="2" fill="none"/></g><g clip-path="url(#clip16_6)"/><g/><g/><g clip-path="url(#clip17_7)"/><g clip-path="url(#clip17_7)"><path d="M152.516 450.776 C298.316 450.018, 440.757 448.939, 581.157 448.935 C577.016 457.403, 577.448 470.097, 579.765 481.414 C453.289 478.49, 328.231 477.92, 152.842 482.58 C151.312 478.529, 152.334 466.558, 156.097 450.664" stroke="none" stroke-width="0" fill="rgb(240, 209, 207)"/><path d="M153.479 449.929 C261.228 450.158, 369.31 450.583, 580.242 450.412 M579.529 449.989 C578.767 459.013, 580.745 463.779, 579.77 482.145 M579.149 482.845 C471.896 482.503, 363.471 482.734, 153.207 481.818 M152.312 481.891 C153.787 473.496, 151.997 465.353, 151.612 449.483" stroke="rgb(196, 69, 64)" stroke-width="2" fill="none"/></g><g clip-path="url(#clip17_7)"/><g/><g/><g clip-path="url(#clip18_8)"/><g clip-path="url(#clip18_8)"><path d="M153.601 485.434 C298.541 484.327, 444.166 486.313, 558.338 485.59 C560.163 499.144, 555 509.948, 556.828 518.529 C456.024 517.427, 353.188 519.874, 152.952 519.029 C153.378 514.244, 153.352 503.09, 156.149 484.604" stroke="none" stroke-width="0" fill="rgb(240, 209, 207)"/><path d="M153.337 486.464 C238.644 487.994, 324.691 488.111, 558.2 486.916 M558.79 484.998 C557.65 495.67, 558.984 504.158, 557.369 517.884 M558.036 518.981 C428.531 518.562, 300.83 519.247, 152.734 517.333 M152.967 517.113 C152.353 505.603, 151.678 495.496, 153.026 486.877" stroke="rgb(196, 69, 64)" stroke-width="2" fill="none"/></g><g clip-path="url(#clip18_8)"/><g/><g class="text-container" transform="matrix(1 0 0 1 659.2 291.857)"><text aria-label="share: 93; task: Performance-Analyse; label: 93" role="graphics-symbol" aria-roledescription="text mark" text-anchor="start" font-family="IBM Plex Sans, Arial, Helvetica, sans-serif" font-size="12px" font-weight="bold" fill="rgb(0, 0, 0)" style="font-style: normal;font-weight: 700;font-size: 12px;font-family: Comic Sans MS, cursive;" stroke="none" stroke-width="1px" dominant-baseline="auto">93</text></g><g class="text-container" transform="matrix(1 0 0 1 648.4 327.571)"><text aria-label="share: 91; task: Creative-Optimierung; label: 91" role="graphics-symbol" aria-roledescription="text mark" text-anchor="start" font-family="IBM Plex Sans, Arial, Helvetica, sans-serif" font-size="12px" font-weight="bold" fill="rgb(0, 0, 0)" style="font-style: normal;font-weight: 700;font-size: 12px;font-family: Comic Sans MS, cursive;" stroke="none" stroke-width="1px" dominant-baseline="auto">91</text></g><g class="text-container" transform="matrix(1 0 0 1 610.6 363.286)"><text aria-label="share: 84; task: Media Planning &amp; Buying; label: 84" role="graphics-symbol" aria-roledescription="text mark" text-anchor="start" font-family="IBM Plex Sans, Arial, Helvetica, sans-serif" font-size="12px" font-weight="bold" fill="rgb(0, 0, 0)" style="font-style: normal;font-weight: 700;font-size: 12px;font-family: Comic Sans MS, cursive;" stroke="none" stroke-width="1px" dominant-baseline="auto">84</text></g><g class="text-container" transform="matrix(1 0 0 1 599.8 399)"><text aria-label="share: 82; task: Media Pre-Planning; label: 82" role="graphics-symbol" aria-roledescription="text mark" text-anchor="start" font-family="IBM Plex Sans, Arial, Helvetica, sans-serif" font-size="12px" font-weight="bold" fill="rgb(0, 0, 0)" style="font-style: normal;font-weight: 700;font-size: 12px;font-family: Comic Sans MS, cursive;" stroke="none" stroke-width="1px" dominant-baseline="auto">82</text></g><g class="text-container" transform="matrix(1 0 0 1 599.8 434.714)"><text aria-label="share: 82; task: Budget-Allokation &amp; Pacing; label: 82" role="graphics-symbol" aria-roledescription="text mark" text-anchor="start" font-family="IBM Plex Sans, Arial, Helvetica, sans-serif" font-size="12px" font-weight="bold" fill="rgb(0, 0, 0)" style="font-style: normal;font-weight: 700;font-size: 12px;font-family: Comic Sans MS, cursive;" stroke="none" stroke-width="1px" dominant-baseline="auto">82</text></g><g class="text-container" transform="matrix(1 0 0 1 583.6 470.429)"><text aria-label="share: 79; task: Campaign Decisioning; label: 79" role="graphics-symbol" aria-roledescription="text mark" text-anchor="start" font-family="IBM Plex Sans, Arial, Helvetica, sans-serif" font-size="12px" font-weight="bold" fill="rgb(0, 0, 0)" style="font-style: normal;font-weight: 700;font-size: 12px;font-family: Comic Sans MS, cursive;" stroke="none" stroke-width="1px" dominant-baseline="auto">79</text></g><g class="text-container" transform="matrix(1 0 0 1 562 506.143)"><text aria-label="share: 75; task: Inventory Discovery; label: 75" role="graphics-symbol" aria-roledescription="text mark" text-anchor="start" font-family="IBM Plex Sans, Arial, Helvetica, sans-serif" font-size="12px" font-weight="bold" fill="rgb(0, 0, 0)" style="font-style: normal;font-weight: 700;font-size: 12px;font-family: Comic Sans MS, cursive;" stroke="none" stroke-width="1px" dominant-baseline="auto">75</text></g><g/><g class="text-container" transform="matrix(1 0 0 1 16.228 261)"><text text-anchor="start" font-family="Fraunces, Arial, Helvetica, sans-serif" font-size="12px" font-weight="bold" fill="rgb(65, 65, 65)" opacity="1" style="font-style: normal;font-weight: 700;font-size: 12px;font-family: Comic Sans MS, cursive;" stroke="none" stroke-width="1px" dominant-baseline="auto">Operative Umsetzung</text></g><g/><g/><g/><g class="text-container" transform="matrix(1 0 0 1 5.228 19)"><text text-anchor="start" font-family="Fraunces, Arial, Helvetica, sans-serif" font-size="17px" font-weight="bold" fill="rgb(65, 65, 65)" opacity="1" style="font-style: normal;font-weight: 700;font-size: 17px;font-family: Comic Sans MS, cursive;" stroke="none" stroke-width="1px" dominant-baseline="auto">Wo Agentic AI hingeht — und was aussen vor bleibt</text></g><g class="text-container" transform="matrix(1 0 0 1 5.228 35)"><text text-anchor="start" font-family="Fraunces, Arial, Helvetica, sans-serif" font-size="11px" fill="rgb(0, 0, 0)" opacity="1" style="font-style: normal;font-weight: 400;font-size: 11px;font-family: Comic Sans MS, cursive;" stroke="none" stroke-width="1px" dominant-baseline="auto"><tspan stroke="none" stroke-width="1px" fill="rgb(0, 0, 0)" text-anchor="start" dominant-baseline="auto">Drei Schichten der Kampagnenarbeit. Bars: Anteil der US-Mediaentscheider, die Agentic AI</tspan><tspan x="0" dy="13" stroke="none" stroke-width="1px" fill="rgb(0, 0, 0)" text-anchor="start" dominant-baseline="auto">für die Aufgabe einsetzen oder einsetzen wollen (IAB 2026 Outlook, n=161, Brands &amp; Agenturen)</tspan></text></g><g/><g/></svg>