<?xml version="1.0" encoding="UTF-8"?>
<svg xmlns="http://www.w3.org/2000/svg" xmlns:xlink="http://www.w3.org/1999/xlink" width="596" height="363" stroke-linecap="round"><defs><clipPath id="clip5_0"><path d="M0.03333333333333144,0L121.46666666666667,0C121.4850638341498,0,121.5,0.014936165850199152,121.5,0.03333333333333144L121.5,0.06666666666666288C121.5,0.06666666666666288,121.5,0.06666666666666288,121.5,0.06666666666666288L0,0.06666666666666288C0,0.06666666666666288,0,0.06666666666666288,0,0.06666666666666288L0,0.03333333333333144C0,0.014936165850199152,0.014936165850199152,0,0.03333333333333144,0Z" transform="matrix(1 0 0 1 57.75 339.933)"/></clipPath><clipPath id="clip6_1"><path d="M0.7400000000000091,0L120.75999999999999,0C121.16841711812556,0,121.5,0.33158288187444407,121.5,0.7400000000000091L121.5,1.4800000000000182C121.5,1.4800000000000182,121.5,1.4800000000000182,121.5,1.4800000000000182L0,1.4800000000000182C0,1.4800000000000182,0,1.4800000000000182,0,1.4800000000000182L0,0.7400000000000091C0,0.33158288187444407,0.33158288187444407,0,0.7400000000000091,0Z" transform="matrix(1 0 0 1 192.75 338.52)"/></clipPath><clipPath id="clip7_2"><path d="M2,0L119.5,0C120.603830048988,0,121.5,0.896169951012,121.5,2L121.5,17.01333333333332C121.5,17.01333333333332,121.5,17.01333333333332,121.5,17.01333333333332L0,17.01333333333332C0,17.01333333333332,0,17.01333333333332,0,17.01333333333332L0,2C0,0.896169951012,0.896169951012,0,2,0Z" transform="matrix(1 0 0 1 327.75 322.987)"/></clipPath><clipPath id="clip8_3"><path d="M2,0L119.5,0C120.603830048988,0,121.5,0.896169951012,121.5,2L121.5,319.34666666666664C121.5,319.34666666666664,121.5,319.34666666666664,121.5,319.34666666666664L0,319.34666666666664C0,319.34666666666664,0,319.34666666666664,0,319.34666666666664L0,2C0,0.896169951012,0.896169951012,0,2,0Z" transform="matrix(1 0 0 1 462.75 20.6533)"/></clipPath></defs><rect fill="transparent" width="596" height="363"/><g/><g/><g><path d="M51.01 340.586 C201.003 341.499, 352.308 341.703, 591.607 340.157" stroke="rgb(229, 229, 229)" stroke-width="1" fill="none"/></g><g><path d="M51.841 273.526 C222.302 275.088, 394.333 274.703, 592.006 274.117" stroke="rgb(229, 229, 229)" stroke-width="1" fill="none"/></g><g><path d="M51.013 207.827 C195.928 207.924, 341.667 208.641, 590.981 207.142" stroke="rgb(229, 229, 229)" stroke-width="1" fill="none"/></g><g><path d="M50.91 140.088 C251.76 140.91, 453.807 141.92, 592.124 140.757 M51.196 140.357 C193.728 139.447, 335.629 139.346, 591.389 140.269" stroke="rgb(229, 229, 229)" stroke-width="1" fill="none"/></g><g><path d="M51.731 73.818 C171.387 74.363, 291.135 73.781, 590.879 73.685" stroke="rgb(229, 229, 229)" stroke-width="1" fill="none"/></g><g/><g/><g><path d="M118.832 340.151 C118.217 342.723, 118.197 343.824, 118.711 345.567" stroke="rgb(196, 69, 64)" stroke-width="1" fill="none"/></g><g><path d="M253.505 340.203 C253.234 341.611, 253.212 343.262, 253.377 345.36" stroke="rgb(196, 69, 64)" stroke-width="1" fill="none"/></g><g><path d="M388.248 340.601 C388.142 341.946, 388.378 344.16, 388.331 345.16 M388.637 340.682 C388.607 342.347, 388.533 343.929, 388.638 345.522" stroke="rgb(196, 69, 64)" stroke-width="1" fill="none"/></g><g><path d="M523.357 340.153 C523.801 342.08, 523.903 343.455, 523.768 345.385" stroke="rgb(196, 69, 64)" stroke-width="1" fill="none"/></g><g class="text-container" transform="matrix(1 0 0 1 118.5 356.5)"><text text-anchor="middle" font-family="IBM Plex Sans, Arial, Helvetica, sans-serif" font-size="12px" fill="rgb(65, 65, 65)" opacity="1" style="font-style: normal;font-weight: 400;font-size: 12px;font-family: Comic Sans MS, cursive;" stroke="none" stroke-width="1px" dominant-baseline="auto">Google</text></g><g class="text-container" transform="matrix(1 0 0 1 253.5 356.5)"><text text-anchor="middle" font-family="IBM Plex Sans, Arial, Helvetica, sans-serif" font-size="12px" fill="rgb(65, 65, 65)" opacity="1" style="font-style: normal;font-weight: 400;font-size: 12px;font-family: Comic Sans MS, cursive;" stroke="none" stroke-width="1px" dominant-baseline="auto">Perplexity</text></g><g class="text-container" transform="matrix(1 0 0 1 388.5 356.5)"><text text-anchor="middle" font-family="IBM Plex Sans, Arial, Helvetica, sans-serif" font-size="12px" fill="rgb(65, 65, 65)" opacity="1" style="font-style: normal;font-weight: 400;font-size: 12px;font-family: Comic Sans MS, cursive;" stroke="none" stroke-width="1px" dominant-baseline="auto">OpenAI</text></g><g class="text-container" transform="matrix(1 0 0 1 523.5 356.5)"><text text-anchor="middle" font-family="IBM Plex Sans, Arial, Helvetica, sans-serif" font-size="12px" fill="rgb(65, 65, 65)" opacity="1" style="font-style: normal;font-weight: 400;font-size: 12px;font-family: Comic Sans MS, cursive;" stroke="none" stroke-width="1px" dominant-baseline="auto">Anthropic</text></g><g><path d="M50.971 340.431 C183.321 340.312, 314.554 339.819, 590.904 340.08 M51.77 340.599 C164.789 340.847, 278.515 340.613, 591.441 340.642" stroke="rgb(196, 69, 64)" stroke-width="1" fill="none"/></g><g/><g/><g><path d="M51.282 340.481 C49.876 340.549, 48.195 340.345, 46.628 340.733" stroke="rgb(196, 69, 64)" stroke-width="1" fill="none"/></g><g><path d="M51.584 273.461 C50.228 273.802, 48.801 273.784, 46.575 273.55" stroke="rgb(196, 69, 64)" stroke-width="1" fill="none"/></g><g><path d="M51.169 207.748 C50.14 207.11, 48.116 207.178, 46.871 207.846" stroke="rgb(196, 69, 64)" stroke-width="1" fill="none"/></g><g><path d="M51.212 140.22 C49.803 140.55, 47.97 140.323, 46.223 140.292" stroke="rgb(196, 69, 64)" stroke-width="1" fill="none"/></g><g><path d="M51.817 73.158 C49.954 73.162, 47.928 73.187, 46.685 73.527" stroke="rgb(196, 69, 64)" stroke-width="1" fill="none"/></g><g class="text-container" transform="matrix(1 0 0 1 44.5 344.5)"><text text-anchor="end" font-family="IBM Plex Sans, Arial, Helvetica, sans-serif" font-size="12px" fill="rgb(65, 65, 65)" opacity="1" style="font-style: normal;font-weight: 400;font-size: 12px;font-family: Comic Sans MS, cursive;" stroke="none" stroke-width="1px" dominant-baseline="auto">0k</text></g><g class="text-container" transform="matrix(1 0 0 1 44.5 277.833)"><text text-anchor="end" font-family="IBM Plex Sans, Arial, Helvetica, sans-serif" font-size="12px" fill="rgb(65, 65, 65)" opacity="1" style="font-style: normal;font-weight: 400;font-size: 12px;font-family: Comic Sans MS, cursive;" stroke="none" stroke-width="1px" dominant-baseline="auto">5k</text></g><g class="text-container" transform="matrix(1 0 0 1 44.5 211.167)"><text text-anchor="end" font-family="IBM Plex Sans, Arial, Helvetica, sans-serif" font-size="12px" fill="rgb(65, 65, 65)" opacity="1" style="font-style: normal;font-weight: 400;font-size: 12px;font-family: Comic Sans MS, cursive;" stroke="none" stroke-width="1px" dominant-baseline="auto">10k</text></g><g class="text-container" transform="matrix(1 0 0 1 44.5 144.5)"><text text-anchor="end" font-family="IBM Plex Sans, Arial, Helvetica, sans-serif" font-size="12px" fill="rgb(65, 65, 65)" opacity="1" style="font-style: normal;font-weight: 400;font-size: 12px;font-family: Comic Sans MS, cursive;" stroke="none" stroke-width="1px" dominant-baseline="auto">15k</text></g><g class="text-container" transform="matrix(1 0 0 1 44.5 77.8333)"><text text-anchor="end" font-family="IBM Plex Sans, Arial, Helvetica, sans-serif" font-size="12px" fill="rgb(65, 65, 65)" opacity="1" style="font-style: normal;font-weight: 400;font-size: 12px;font-family: Comic Sans MS, cursive;" stroke="none" stroke-width="1px" dominant-baseline="auto">20k</text></g><g><path d="M51.431 341.233 C51.859 272.769, 52.845 206.784, 50.441 20.634 M51.353 340.722 C50.356 229.907, 50.296 120.485, 51.126 20.536" stroke="rgb(196, 69, 64)" stroke-width="1" fill="none"/></g><g class="text-container" transform="matrix(6.12323e-17 -1 1 6.12323e-17 16.776 180.5)"><text text-anchor="middle" font-family="IBM Plex Sans, Arial, Helvetica, sans-serif" font-size="14px" font-weight="bold" fill="rgb(65, 65, 65)" opacity="1" style="font-style: normal;font-weight: 700;font-size: 14px;font-family: Comic Sans MS, cursive;" stroke="none" stroke-width="1px" dominant-baseline="auto">Crawls pro Referral</text></g><g/><g/><g clip-path="url(#clip5_0)"/><g clip-path="url(#clip5_0)"><path d="M55.314 340.539 C100.143 337.188, 138.391 341.409, 176.221 338.333 C179.245 339.947, 179.242 339.976, 179.249 339.997 C154.567 338.929, 126.741 337.125, 55.543 338.776 C57.743 339.983, 57.753 339.954, 57.74 339.932" stroke="none" stroke-width="0" fill="rgb(208, 208, 208)"/><path d="M56.872 340.975 C97.751 341.691, 142.092 340.347, 178.202 340.502 M179.248 339.937 C179.254 339.955, 179.251 339.964, 179.245 340.001 M177.881 340.401 C141.742 339.379, 106.54 341.07, 56.379 340.633 M57.747 340.005 C57.745 339.981, 57.749 339.954, 57.747 339.938" stroke="rgb(65, 65, 65)" stroke-width="2" fill="none"/></g><g clip-path="url(#clip5_0)"/><g/><g/><g clip-path="url(#clip6_1)"/><g clip-path="url(#clip6_1)"><path d="M191.686 340.724 C223.878 340.644, 256.304 337.26, 313.875 339.661 C314.376 338.95, 314.214 339.206, 314.397 339.938 C267.541 339.685, 224.566 343.234, 192.267 341.705 C192.552 339.566, 192.496 339.1, 192.953 338.39" stroke="none" stroke-width="0" fill="rgb(208, 208, 208)"/><path d="M194.115 339.73 C219.951 338.312, 249.837 336.951, 314.325 339.876 M314.349 338.591 C314.344 339.062, 314.295 339.551, 314.278 339.925 M314.995 340.37 C267.738 339.632, 219.567 341.171, 192.069 341.319 M192.854 339.989 C192.702 339.696, 192.824 339.317, 192.759 338.542" stroke="rgb(65, 65, 65)" stroke-width="2" fill="none"/></g><g clip-path="url(#clip6_1)"/><g/><g/><g clip-path="url(#clip7_2)"/><g clip-path="url(#clip7_2)"><path d="M326.816 323.52 C355.275 317.928, 383.774 321.198, 452.371 323.531 C450.656 328.195, 447.791 333.531, 447.488 340.276 C422.723 339.617, 396.223 335.666, 328.127 337.831 C328.518 337.196, 328.095 329.929, 330.227 321.084" stroke="none" stroke-width="0" fill="rgb(208, 208, 208)"/><path d="M328.711 321.989 C359.034 322.807, 391.063 322.238, 448.765 322.274 M450.537 322.857 C450.425 330.137, 448.174 335.853, 448.624 340.071 M447.671 339.716 C413.693 339.806, 379.054 341.698, 328.668 341.153 M327.566 339.968 C328.588 335.232, 327.333 331.317, 328.551 322.683" stroke="rgb(65, 65, 65)" stroke-width="2" fill="none"/></g><g clip-path="url(#clip7_2)"/><g/><g/><g clip-path="url(#clip8_3)"/><g clip-path="url(#clip8_3)"><path d="M463.807 23.469 C492.824 15.863, 517.139 16.314, 586.29 22.693 C589.073 103.285, 585.699 187.568, 586.394 338.549 C556.246 341.629, 524.031 340.018, 460.997 342.965 C464.614 260.779, 464.287 183.765, 462.754 19.642" stroke="none" stroke-width="0" fill="rgb(240, 209, 207)"/><path d="M464.038 21.495 C492.565 20.755, 524.274 19.313, 583.714 19.505 M583.929 20.682 C582.081 106.406, 582.556 192.929, 584.623 339.336 M585.721 338.664 C554.727 339.583, 521.953 340.56, 461.711 339.072 M462.864 341.117 C463.94 239.591, 464.219 137.337, 463.1 19.705" stroke="rgb(196, 69, 64)" stroke-width="2" fill="none"/></g><g clip-path="url(#clip8_3)"/><g/><g class="text-container" transform="matrix(1 0 0 1 118.5 335.933)"><text aria-label="platform: Google; ratio: 5; label: 5" role="graphics-symbol" aria-roledescription="text mark" text-anchor="middle" font-family="IBM Plex Sans, Arial, Helvetica, sans-serif" font-size="14px" font-weight="bold" fill="rgb(0, 0, 0)" style="font-style: normal;font-weight: 700;font-size: 14px;font-family: Comic Sans MS, cursive;" stroke="none" stroke-width="1px" dominant-baseline="auto">5</text></g><g class="text-container" transform="matrix(1 0 0 1 253.5 334.52)"><text aria-label="platform: Perplexity; ratio: 111; label: 111" role="graphics-symbol" aria-roledescription="text mark" text-anchor="middle" font-family="IBM Plex Sans, Arial, Helvetica, sans-serif" font-size="14px" font-weight="bold" fill="rgb(0, 0, 0)" style="font-style: normal;font-weight: 700;font-size: 14px;font-family: Comic Sans MS, cursive;" stroke="none" stroke-width="1px" dominant-baseline="auto">111</text></g><g class="text-container" transform="matrix(1 0 0 1 388.5 318.987)"><text aria-label="platform: OpenAI; ratio: 1.276k; label: 1'276" role="graphics-symbol" aria-roledescription="text mark" text-anchor="middle" font-family="IBM Plex Sans, Arial, Helvetica, sans-serif" font-size="14px" font-weight="bold" fill="rgb(0, 0, 0)" style="font-style: normal;font-weight: 700;font-size: 14px;font-family: Comic Sans MS, cursive;" stroke="none" stroke-width="1px" dominant-baseline="auto">1'276</text></g><g class="text-container" transform="matrix(1 0 0 1 523.5 16.6533)"><text aria-label="platform: Anthropic; ratio: 23.951k; label: 23'951" role="graphics-symbol" aria-roledescription="text mark" text-anchor="middle" font-family="IBM Plex Sans, Arial, Helvetica, sans-serif" font-size="14px" font-weight="bold" fill="rgb(0, 0, 0)" style="font-style: normal;font-weight: 700;font-size: 14px;font-family: Comic Sans MS, cursive;" stroke="none" stroke-width="1px" dominant-baseline="auto">23'951</text></g><g/></svg>